<?xml version="1.0" encoding="utf-8"?>
<!-- Generator: Adobe Illustrator 26.2.1, SVG Export Plug-In . SVG Version: 6.00 Build 0)  -->
<svg version="1.1" id="Layer_1" xmlns="http://www.w3.org/2000/svg" xmlns:xlink="http://www.w3.org/1999/xlink" x="0px" y="0px"
	 viewBox="0 0 100 100" style="enable-background:new 0 0 100 100;" xml:space="preserve">
<style type="text/css">
	.st0{fill:#FFFFFF;}
</style>
<path class="st0" d="M57.1,50l24.7-24.7c2-2,2-5.1,0-7.1c-2-2-5.1-2-7.1,0L50,42.9L25.3,18.2c-2-2-5.1-2-7.1,0c-2,2-2,5.1,0,7.1
	L42.9,50L18.2,74.7c-2,2-2,5.1,0,7.1c2,2,5.1,2,7.1,0L50,57.1l24.7,24.7c2,2,5.1,2,7.1,0c2-2,2-5.1,0-7.1L57.1,50z"/>
</svg>
