<svg xmlns="http://www.w3.org/2000/svg" width="25.625" height="25.62"><path id="Kształt_10" data-name="Kształt 10" d="M301 7162.43a6.57 6.57 0 106.572 6.57 6.571 6.571 0 00-6.572-6.57zm0 10.84a4.27 4.27 0 114.267-4.27 4.268 4.268 0 01-4.267 4.27zm6.833-12.64a1.535 1.535 0 101.536 1.54 1.539 1.539 0 00-1.535-1.54zm5.889 3.09a9.422 9.422 0 00-.6-3.1 6.21 6.21 0 00-1.477-2.27 6.345 6.345 0 00-2.267-1.48 9.546 9.546 0 00-3.109-.59c-1.365-.07-1.8-.08-5.276-.08s-3.911.01-5.276.08a9.509 9.509 0 00-3.106.59 6.34 6.34 0 00-2.268 1.48 6.21 6.21 0 00-1.477 2.27 9.269 9.269 0 00-.6 3.1c-.061 1.37-.077 1.8-.077 5.28s.015 3.91.077 5.28a9.371 9.371 0 00.6 3.1 6.277 6.277 0 001.476 2.27 6.345 6.345 0 002.267 1.48 9.521 9.521 0 003.107.59c1.365.06 1.8.08 5.278.08s3.911-.02 5.276-.08a9.534 9.534 0 003.109-.59 6.565 6.565 0 003.743-3.75 9.422 9.422 0 00.6-3.1c.061-1.37.077-1.8.077-5.28s-.015-3.91-.076-5.28zm-2.3 10.45a7.02 7.02 0 01-.441 2.37 4.261 4.261 0 01-2.429 2.43 6.8 6.8 0 01-2.377.44c-1.349.06-1.754.08-5.172.08s-3.823-.02-5.172-.08a7.052 7.052 0 01-2.377-.44 4.259 4.259 0 01-2.43-2.43 7.08 7.08 0 01-.441-2.37c-.061-1.35-.073-1.76-.073-5.18s.012-3.82.073-5.17a7.08 7.08 0 01.441-2.37 4.184 4.184 0 012.43-2.43 6.8 6.8 0 012.377-.44c1.181-.06 1.638-.07 4.024-.08v.01H301c3.418 0 3.823.01 5.172.07a7.314 7.314 0 012.377.44 3.921 3.921 0 011.471.96 3.966 3.966 0 01.958 1.47 7.1 7.1 0 01.441 2.38c.061 1.35.074 1.75.074 5.17s-.012 3.82-.073 5.17z" transform="translate(-288.188 -7156.19)" fill="#fff" fill-rule="evenodd"/></svg>