<svg version="1.1" id="Warstwa_1" xmlns="http://www.w3.org/2000/svg" x="0" y="0" viewBox="0 0 215 215" xml:space="preserve"><g fill="#FFF"><path d="M88.3 172.6h-3.1c0 .4.1.9.1 1.3v4.4c0 .4 0 .9-.1 1.3h3.9v-.7c-.4.1-.8.1-1.2.1h-1.1v-2.4c.8 0 1.5 0 2.3.1v-.9c-.4 0-.7 0-1.1.1h-1.2v-1.1c0-.4 0-.7.1-1.1h2.3v-.8c-.3-.4-.5-.4-.9-.3zm4.4 6.3c-.2 0-.4 0-.5-.1-.2-.1-.3-.1-.4-.2l-.3-.3c-.1-.1-.1-.3-.2-.4h-.2c0 .2-.1.4-.1.6s-.1.4-.2.6c.2.1.4.2.7.3.3.1.6.1 1 .1s.8-.1 1.1-.1c.3-.1.6-.2.8-.4s.4-.4.5-.7c.1-.3.2-.6.2-.9 0-.4-.1-.7-.2-.9-.2-.2-.3-.4-.6-.6-.2-.2-.5-.3-.7-.4s-.5-.2-.7-.4c-.2-.1-.4-.3-.6-.4s-.2-.4-.2-.6.1-.4.3-.6c.2-.2.4-.3.8-.3.6 0 1 .3 1.2.9h.2c.1-.2.1-.4.2-.5 0-.1.1-.3.2-.4-.2-.1-.4-.3-.7-.4-.3-.1-.6-.1-.9-.1-.3 0-.6.1-.8.1s-.5.2-.7.4c-.2.2-.4.4-.5.7-.1.3-.2.6-.2.9 0 .4.1.7.2.9.2.2.3.4.6.6.2.2.5.3.7.4s.5.2.7.4.4.3.6.4.2.4.2.6c0 .3-.1.5-.3.7-.5 0-.8.1-1.2.1zm9.1-6.4h-5.1v.8c.2 0 .3 0 .5-.1h1.4v4.9c0 .4 0 .9-.1 1.3h1.6c0-.4-.1-.8-.1-1.3v-4.8h1.4c.2 0 .3 0 .4.1v-.9zm3.2 6.8c.2-.1.2-.3.2-.6 0-.2-.1-.4-.2-.6-.2-.2-.3-.2-.6-.2s-.4.1-.6.2-.2.4-.2.6.1.4.2.6c.2.1.3.2.6.2s.5-.1.6-.2zm8.3-3.4c.2-.3.3-.6.4-.8s.1-.5.1-.7c0-.2 0-.4-.1-.6-.1-.2-.2-.4-.4-.6s-.4-.3-.7-.4c-.3-.1-.7-.2-1.1-.2-.6 0-1.1.1-1.4.4s-.6.6-.7.9c.1.1.3.2.4.3s.3.2.4.3h.1v-.4c0-.1.1-.3.2-.5s.2-.3.3-.4c.1-.1.3-.1.5-.1.1 0 .2 0 .4.1s.2.1.3.2c.1.1.2.3.2.4.1.2.1.4.1.7 0 .3-.1.6-.2 1s-.3.7-.5 1c-.2.4-.5.7-.9 1.1l-1.3 1.3v.4h4.4v-1.2c-.5 0-.9.1-1.4.1H111c.6-.5 1.1-.9 1.4-1.3.4-.4.7-.7.9-1zm4 3.4c.3.2.7.2 1.1.2.8 0 1.4-.3 1.8-.9.4-.6.6-1.5.6-2.7 0-1.1-.2-1.9-.6-2.4s-1-.8-1.7-.8c-.8 0-1.4.3-1.8.9-.4.6-.6 1.4-.6 2.5 0 .5.1 1 .1 1.4s.2.8.4 1.1c.1.3.4.5.7.7zm.2-4.8c0-.4.1-.7.2-.9.1-.2.2-.4.3-.5.1-.1.2-.1.4-.1s.3 0 .4.1c.1.1.2.2.3.5.1.2.1.5.2.9 0 .4.1.9.1 1.5s0 1.1-.1 1.5-.1.7-.2.9c-.1.2-.2.4-.3.4-.1.1-.2.1-.4.1s-.3-.1-.4-.2-.2-.3-.3-.6c-.1-.2-.1-.6-.1-1v-1.4c-.1-.3-.1-.8-.1-1.2zm6.3 4.8c.3.2.7.2 1.1.2.8 0 1.4-.3 1.8-.9.4-.6.6-1.5.6-2.7 0-1.1-.2-1.9-.6-2.4s-1-.8-1.7-.8c-.8 0-1.4.3-1.8.9-.4.6-.6 1.4-.6 2.5 0 .5.1 1 .1 1.4s.2.8.4 1.1c.2.3.4.5.7.7zm.3-4.8c0-.4.1-.7.2-.9.1-.2.2-.4.3-.5.1-.1.2-.1.4-.1s.3 0 .4.1c.1.1.2.2.3.5s.1.5.2.9.1.9.1 1.5 0 1.1-.1 1.5c0 .4-.1.7-.2.9-.1.2-.2.4-.3.4-.1.1-.2.1-.4.1s-.3-.1-.4-.2-.2-.3-.3-.6c-.1-.2-.1-.6-.1-1v-1.4c-.1-.3-.1-.8-.1-1.2zm5.9 1.4c-.2.1-.3.2-.4.4s-.2.3-.3.5-.1.4-.1.7c0 .3.1.6.2.9s.3.4.5.6c.2.2.4.3.7.4.3.1.6.1.9.1.3 0 .7 0 .9-.1s.6-.2.8-.4c.2-.2.4-.4.5-.7.1-.3.2-.6.2-.9 0-.2 0-.5-.1-.7-.1-.2-.2-.4-.3-.5-.1-.1-.3-.2-.4-.3-.2-.1-.3-.1-.5-.2v-.1c.1 0 .3-.1.4-.2s.3-.2.4-.3c.1-.1.2-.3.2-.4.1-.2.1-.4.1-.6s0-.4-.1-.6c-.1-.2-.2-.4-.4-.5s-.4-.2-.7-.3c-.3-.1-.6-.1-.9-.1-.3 0-.6 0-.8.1-.3.1-.5.2-.7.3-.2.1-.3.3-.4.5s-.2.4-.2.7c0 .2 0 .4.1.5.1.2.1.3.2.4.1.1.2.2.4.3.1.1.3.1.4.2v.1c-.3.1-.5.1-.6.2zm.9-2.5c.1-.2.3-.4.6-.4s.4.1.6.3c.1.2.2.5.2.9s-.1.7-.2.9c-.1.2-.3.3-.6.3-.2 0-.4-.1-.5-.3-.2-.2-.2-.5-.2-.9-.1-.2-.1-.6.1-.8zm-.1 2.9c.2-.2.4-.4.6-.4.3 0 .5.1.6.4s.2.6.2 1.2-.1 1-.3 1.2c-.2.3-.4.4-.6.4-.3 0-.5-.1-.6-.4-.2-.3-.2-.7-.2-1.2.1-.5.2-.9.3-1.2zm60-41c-.6 8.8-13.3 13.9-28.2 15.3-.5-4.2 4.3-16.9 8.2-22.5 1.1-1.7 2.2-2.2 1.2-3.4-.8-.9-1.5-1-2.4-1.4-1-.5-1.7.1-1.7.1-.3.3-.7.8-1.1 1.4-2.4-.7-10.2-1.8-15.5 2.9-2.9 2.5-5.4 6-6.6 9.7-6.2 7.6-10 10.1-11.9 10.6-.5.2-.6-.3-.3-.9.3-.6 5.3-13.5 6.3-15.8 1.9-4.3 3.3-6.2 2.6-6.8s-2.4-1-3.3-1.1c-.6-.1-1.7-.1-2.2 1-.5 1.2-3.1 7.6-4.8 11.6-1.7 4-3.4 9.3-3.4 10.8s1.4 3.9 3 3.9c1.7 0 6.1-.8 13.5-10.7-.4 3.2.3 6.5 2.8 9.5 2.1 2.6 8.9-3.1 12.8-6.8-.3 1.5-.5 3-.4 4.3 0 .8.2 2.9.9 3.9-.2 0-.5 0-.8.1-2.9.2-1.5 1.8.2 1.6 14.9-1.8 32.1-1.3 32.3-17.3.1-1.1-1.1-1-1.2 0zm-39.6 11.3c-2.9 1.1-2.8.9-2.9-.9-.1-4.9 3.9-13.2 7.7-16.4 3.3-2.8 6.7-4.1 10.3-3.5-2.1 3.4-4.6 9.3-6 14.7-2.6 2-7.1 5.3-9.1 6.1zm-47.4-50.3s-5.7 6.4-11.9 5.3c-5.4-1-.9-15.8 4-21.7 1.8-2.1 2.7-2.7 3.4-2.5 1.7.3 1 4.7-1.7 8-1.1 1.4-2.8 3.7-5.2 4.7 0 0-.2.9.4.9 1.4 0 10.1-3.5 11.1-8.4.9-4.4-1.9-6.8-4.7-6.8-2 0-8.9 1.4-12.4 11.1-.3.8-.5 1.6-.7 2.3-6.8 8.4-11.1 11.3-13.1 11.9-.5.2-.6-.3-.3-1 .3-.6 5.2-13.8 6-16.1s1.7-4.2.9-5.6c-.2-.3-.9-1.8-2-2.2-1.1-.4-3.2-.4-4.7.7-2 1.5-3.5 2.9-5 4.6 0 0 .4 1 1.2.5.4-.2.5-.6 3.1-2.8 2.6-2.2 3.9-2 3.9-2 .1 1.2-3.1 7.6-4.8 11.6-1.7 4-3.4 9.3-3.4 10.8s1.4 3.9 3 3.9c1.8 0 6.8-1.1 14.8-12.3-.8 6.9 2.7 11.1 4.1 11.7 2.5 1.1 9 .4 14.9-5.9.5-.3-.9-.7-.9-.7z"/><path d="M127.2 68.4c.9-.6 1.2-2.2.3-2.6-.7-.3-1.8-.8-3.7-.7-1 0-5.4.7-8.4 6.3-3.7 7-4.8 15.1-5.8 22.2-3.1 22.9-10.9 21.9-12.7 21.8s-4.4-1.8-5.5-3.2c-.5-.6-2.5 2.4-2.3 2.6.2.2 1.5 2.1 6.1 2.1 8.4 0 13.3-4.4 17.2-15.7 3.6-10.3 3.8-17 4.4-23.5.4-5 .7-11.5 6.8-11.1 2.2.2 2.6 2.4 3.6 1.8z"/><path d="M212 76.4c-.2-1.1-3.8-.2-4.8.1-1.2.4-1.4.5-1.3 4.1.2 5.2-1.9 9.4-3.4 12.1-1.5 2.7-3.7 5.9-7.3 8.2s-5.5 1.2-5.5 1.2c-.3-2 1.1-6.4 2.9-11.1 1.7-4.6 4.4-9.6 4.9-10.5.6-1.1.7-1.6.5-2s-1.8-2-2.5-2.7-1.4 0-1.8.6c-1.2 2.2-2.6 5.3-3.9 8.6-8.3 12.4-14.8 17.9-16.2 16.5-.6-.6 2-8.4 2.7-10.2 1-2.8 1.6-5.4 3.1-7.8.1-.1 2.1-2.3 3.2-3.5.9-.9.7-1.4 0-2.2-.9-1.1-2.1-2.1-3.2-2.2 0 0-1.3 0-2.3 2-1.3 2.7-3 6.7-4.4 10.5-.9 1-1.8 1.9-2.6 2.7-2.5 2.6-14.4 14.3-14.8 11.6-.4-2.9 5.2-16 9.5-20.9 1.3-1.5 2.2-2.2 1.2-3.4-.8-.9-1.2-1.4-1.8-1.9-.9-.7-1.7.1-1.7.1-2 2-6 8.7-8.4 15.1-2.4 2.1-7.8 6.6-10 7.5-2.9 1.1-2.8.9-2.9-.9-.1-4.9 4-12.5 7.7-15.8 3.1-2.7 4.7-3.5 9.3-3.2.7 0 .4-1.2-.2-1.4-1.1-.3-7.5-2.5-13.5 2.8-3.8 3.4-7 8.3-7.3 13.4-1.1.9-2.9 2.5-5.4 4.3-2.1 1.5-5.6 3-6.5 3.1-.9.1-.7-.3-.3-1.7.9-3.7 11.8-32.7 15.3-37 .5-.7.8-1.1.9-1.5 7.4.2 14.4.3 17.6-.1 6.4-.8 12.9-2.5 15-3.6 1.6-.8 1.8-1 1.9-1.3s-1.5-2.6-2.1-3.3c-.6-.7-1.6-.2-2.2 0-.8.3-7 5.5-22.2 6.7-2 .2-5.1.3-8.6.3-.6-.6-1.8-1.5-2.5-2s-1-.6-1.4 0c-.1.2-.4.9-1 2-7.5 0-15.8-.3-21-.6-5.2-.3-9.8 6.4-10.1 6.8-.3.4.3 1.5 1.5.4 2.5-2.1 5.2-4.6 11.3-5.4 2.8-.4 10-.2 17.8 0-3 6.9-10.2 23.9-12.2 30.1-2.4 7.8-1.2 8.3-.8 8.8s2.4 3.1 4.6 3.1c2 0 8.7-5.9 10.5-7.7.2 2.3 1 4.6 2.7 6.7 2.1 2.6 9.2-3.4 13.1-7.1-.4 1.6-.7 3.2-.8 4.6-.1 1.5 1.4 5.2 4.4 5 3.1-.2 10.2-7.4 11.7-9.2.7-.8 1.8-2.1 2.9-3.4-1 2.8-1.6 5.3-1.6 6.5 0 2.4 2.3 6.3 3.7 6.3 3.3 0 9.6-7.3 14.3-13.4-.9 3.3-1.5 6.5-1.3 8.6.1 1.5 3.1 5 5.2 5 4.5 0 14.9-11.7 17.6-17.7 1.6-3.6 3-9.6 2.8-10.7zM89.9 184.5c-2.3 1.7-6.1 2.4-10.7.8-4.6-1.6-6.1-6.1-5.8-10 .2-3.4 2.2-7.6 6.1-10.6 6.8 3.8 12.8 3.8 16 3.2 2.9-.5 4.9-1.5 4.5-4.1-.4-2.6-5.2-4.6-13-3.3-1.9.3-4.1 1.1-6.2 2.3-1.7-1.1-3.4-2.6-5.1-4.4-6.5-6.9-10.3-12.6-13.5-19.1s-7.9-10.1-7.9-10.1c4.9-6.4 11.4-10.8 15-12.6 3.4-1.7 4.9-2.1 6.5-2.8 3.2-1.4 1.1-5.6.5-5.4-3.8 1.1-20.3 15.1-22.4 17.6-2.2 2.5-4.5 4.2-4.1 4.4s2.3 1.4 5.3 4.6c3.5 3.8 8.4 13.9 12.3 18.9 3.8 4.9 7.7 8.2 11.3 10.3-3.9 2.8-7.1 6.8-7.3 11.1-.1 3.1 2.5 13.5 14.7 11.7 1.4-.2 4.5-2.2 4.5-2.2s0-.8-.7-.3zm.9-23.2c6.3 0 8.5 4.1 6.6 5-2.3 1-8.8 1.4-15.8-2.9 2.5-1.3 5.5-2.1 9.2-2.1z"/><path d="M121.6 114.4c4.9-2.2 7.4 1.7 7.7 2 .3.3 4.3-1.4 4-3.3-.1-1.1-5.2-3.3-11.2-.7-3.2 1.4-7.2 4.3-9.5 8-1.6 2.5-5.8 9-7.2 16-.8 1.5-2.6 4.8-6.2 8.3-6.9 6.7-7.2 3.4-7.2 3.4-.6-1.7 2.8-11.4 4.1-14.7 1.3-3.3 2.6-6.3 3.1-7.1.7-1.1.2-1.7 0-1.8s-1.1-.7-2.5-1.3-1.9 0-2 .2c-2.4 4.4-4.5 10.4-6.2 14.9-.1.2-.2.5-.2.7-5.5 6.8-12.1 9.5-12.5 8.9-1.2-1.6 3.3-11.4 4.8-15.5 1.5-4 2.8-5.8 2.4-7.3-.2-1-2.2-2.7-4.8-2.9s-8 4.7-8.5 5.1c0 0 .7 1 1.5.3 6.6-5.3 7.2-3.9 7.2-3.9.3 1.1-4.7 12.7-5.9 16.1-1.6 4.1-1.3 6.6-1.1 7.7.4 1.4 2.5 3.2 4.8 3.2 2.5 0 8.8-5.9 11.4-8.4-.1 2.2.4 3.8.7 4.5 1 2.7 2.9 4 5.2 4.1 2 .1 4.5-2.6 6.6-4.9 1.7-1.8 4.2-5.6 5.2-7-.2 2.2.1 4.3.8 6.4 1.3 3.8 4.2 6.1 5.9 6.1 3.8 0 10.8-3.1 14.2-11 .5-1.1-1.5 0-1.5 0-2.4 4.2-7.7 9.6-11.1 7.2-8.1-5.4 1.6-30.5 8-33.3zm3.7 45.4c-.7.1-2 .4-3.3.8-6.7-6.4-15.1-4.4-19.9-1.6-.4.2-.3.9.1.8.5-.1.4-.9 4-1.5 4.7-.9 9.8-.3 12.9 1.5.7.4 1.3.8 1.9 1.2-1.9.9-3.6 2.3-3.6 4.3 0 4.2 7.4 5.2 7.5.4 0-1.6-1.3-3.4-2.3-4.5.9-.4 1.9-.6 2.7-.7 3.7-.6 12.4.8 15.9 8.4 3.5 7.6-.2 12.7-1.7 14.5-1.9 2.3-6 5.3-9.9 6.2-.3-3.6-3.5-5-9.1-4.1-2.7.4-5.5 1.9-8.4 3.5-5.1-1.1-9.8-2.4-14-2.9-1.7-.2-4.1-.2-5.7.2-2.9.6-5.2 2.8-5.3 5.1-.1 2.9 2.3 4.7 6 5.1 4 .4 7.9-.9 11.6-2.7 5.6 1.7 12.1 3.6 16.3 3.4 4.3-.2 8.5-2.2 8.5-6.8 2.9-.8 4.7-1.7 5.5-2.2 1.4-.9 11.4-6.1 9.5-16.9-1.7-10.8-15.2-11.9-19.2-11.5zm-1 5.6c.5 3.4-4.6 4.6-4.9-.2-.1-1.7 1-2.8 2.4-3.6 1.3 1.2 2.3 2.4 2.5 3.8zm-3.7 20.9c4.7-.7 7.9.3 8.2 3.5-5.5.9-10.7.4-15.6-.6 2.6-1.4 5.1-2.6 7.4-2.9zm-27.4 9.4c-3.4-.3-5.3-2.6-5.3-4.4 0-1.8 1.9-4 5.1-4.4 4-.6 10.3 1.7 17 3.3-1.3.8-2.7 1.5-4.1 2.2-3.8-1.2-7.4-2.1-9.9-2-3.5.2-4.2.8-4.2.8-.1.1-.2.4.1.5 0 0 1-.3 3.2-.3 1.6 0 4.9.9 8.6 2-3.2 1.6-6.7 2.7-10.5 2.3zm29.2.5c-3.8.4-9.9-1.7-15.6-3.5 1.4-.7 2.8-1.5 4.1-2.3 4.2 1 8.6 1.6 12.7 1.1 2-.3 3.7-.6 5.2-.9 0 2.6-1.4 5.1-6.4 5.6zM82.9 71.5c1.2-.1 3.2-2.6 3.4-4.1.1-1.5-1.2-2.4-2.3-2.5-1.5-.1-3.3 2.6-3.4 3.9-.3 2.7 1.1 2.9 2.3 2.7zm59.8 47c1.2-.1 3.2-2.6 3.4-4.1.1-1.5-1.2-2.4-2.3-2.5-1.5-.1-3.1 2.6-3.4 3.9-.6 2.2 1.1 2.8 2.3 2.7zM27 101.6c.1 1.7 1.8 2.3 2.6 1 .5-.8 2-5 3-8.3 3.3-10.8 9.1-19.6 12.7-24.2-.3 10.8 4.9 20.8 3.4 31.9-.1.8 1 1.4 1.8.8.2-.2 1.3-2.3 2.8-5.7 12.5-28.8 18.9-33.6 24.4-37.6 5.4-4 .9-6.8.8-6.8C72.3 58.3 69 63 66.4 67.2 60 77.2 55.6 89 52 96.5c-.3.7-.5.3-.4-.6.4-4.6 1-10.5-.1-16-1.3-6.7-2.6-9.9-2.8-11.7-.2-1.1-.3-1.6-.3-1.6 2.3-1.9 3.3-3.3 3.8-4.5.5-1.3-1.9-3.5-1.9-3.5-1.2.7-4.2 5.6-5 9.9-3.7 4.7-10.6 13.5-14.7 27.7-.2.7-.5.1-.5-.2 1.7-15.4-3.6-20.1.1-30.8 1.9-5.6 3.4-7.8 5.4-10.1.2-.3-.8-.9-1.3-.4-.8.7-4.6 4.6-7.6 10.2-5.1 9.2-.1 26.8.3 36.7zm31.3 5.2c.8-.7-.4-1.6-.9-1.1-2.6 2.5-4.2 4.6-6.7 9.1-2.4 4.4-8.1 20.6-10.3 26.6-2.4 6.8-5.5 12.1-6.4 13.2-.5.6-.9 1.1-.6 1.1.9-.1 5.4-.9 6.8-2.1 1.4-1.1 3-3.2 4.1-8.1 1.2-4.9 5.1-22.8 8-29.1 2.7-5.7 4.9-8.7 6-9.6zM29.9 56.6c-1.9 1.7-4.1 3.3-5.8 4.3-5.8 3.7-13.7 5.3-17.5 9.2-6.9 7.2-1.8 14.9-1.7 15 .2.4.8.2.7-.4-.4-2.4-1.5-9 4.9-14.2 8.4-6.9 11-4.6 20.2-13.5.1 0 0-1.1-.8-.4zm22.3 52.7c.4-.5-.2-.8-.8-.2-4.8 4.9-13.5 12.5-22.1 13.5-7.6.9-13.4-5.7-11.1-9.9.3-.5.1-.9-.3-.6-.7.4-1.1.7-2 2.6-1.6 3.6.6 11.5 12.4 9.8 8.1-1.1 16.8-6.3 23.9-15.2zM75 26.6c-.3 0-.5 0-.7-.1l-.6-.3c-.2-.1-.3-.3-.4-.5-.1-.2-.2-.4-.2-.5h-.2c0 .3-.1.6-.2.8-.1.3-.1.5-.2.9.2.1.5.3.9.4.4.1.8.1 1.3.1s1-.1 1.4-.2.8-.3 1.1-.6c.3-.3.6-.6.7-1s.2-.8.2-1.2c0-.5-.1-.9-.3-1.2-.2-.3-.4-.6-.8-.8-.3-.2-.6-.4-1-.6-.3-.2-.7-.3-1-.5-.3-.2-.6-.4-.8-.6-.2-.2-.3-.5-.3-.8 0-.3.1-.6.4-.8s.6-.4 1-.4c.8 0 1.3.4 1.6 1.1h.2c.1-.3.2-.5.2-.7.1-.2.1-.4.2-.6-.3-.2-.6-.4-.9-.5-.4-.1-.8-.2-1.3-.2-.4 0-.8.1-1.2.2-.4.1-.7.3-1 .5s-.5.5-.7.9c-.2.4-.2.8-.2 1.2 0 .5.1.9.3 1.2.2.3.4.6.7.8.3.2.6.4 1 .6.3.2.7.3 1 .5s.5.4.7.6c.2.2.3.5.3.8 0 .4-.1.7-.4 1 .1.3-.3.5-.8.5zm13.4.6h3.3v-1.1H87c.8-1.3 1.5-2.7 2.3-4 .8-1.3 1.6-2.6 2.4-4V18h-7c0 .1 0 .2.1.3v.6c0 .1 0 .2-.1.3.7-.1 1.4-.1 2.1-.1h2.1l-1.2 2.1-1.2 2.1c-.4.7-.8 1.4-1.2 2s-.8 1.2-1.1 1.7v.2h4.2zm10.3-1.7c0 .6-.1 1.1-.1 1.7h2.2c-.1-.4-.1-1-.1-1.6v-2.5c.4.7.9 1.4 1.3 2.1.4.7.9 1.4 1.3 2.1h2.5c-.2-.2-.4-.5-.7-1-.3-.4-.6-.9-1-1.4-.3-.5-.7-1-1-1.5s-.7-1-.9-1.4c.2-.2.4-.5.8-.9s.7-.8 1-1.1.7-.8 1-1.1.5-.6.7-.7h-1.6c-.1.2-.3.4-.6.8-.3.3-.6.7-.9 1.1s-.7.8-1 1.2-.7.8-1 1.2v-3.3c0-.5 0-.9.1-1.2h-2.2c0 .6.1 1.1.1 1.7v3.8c.1.8.1 1.4.1 2zm13.9.8c.5.4 1 .7 1.6.8s1.3.3 2 .3c.8 0 1.4-.1 2.1-.4.6-.2 1.2-.6 1.6-1s.8-.9 1.1-1.5c.2-.6.4-1.2.4-1.9 0-.8-.1-1.5-.4-2.1s-.6-1.1-1.1-1.5-1-.7-1.6-.9c-.6-.2-1.3-.3-2-.3-.8 0-1.5.1-2.1.4-.6.2-1.2.6-1.6 1-.4.4-.8.9-1 1.5s-.4 1.2-.4 1.9c0 .8.1 1.5.4 2.1.2.7.6 1.2 1 1.6zm.9-5.2c.1-.5.3-.9.6-1.3.2-.4.6-.7.9-.9s.8-.3 1.2-.3c.4 0 .8.1 1.2.3.4.2.7.4.9.7s.4.7.6 1.2c.1.5.2 1 .2 1.5 0 .7-.1 1.4-.2 1.9-.2.5-.4 1-.7 1.3-.3.4-.6.6-1 .8-.4.2-.8.2-1.2.2-.4 0-.7-.1-1.1-.2-.3-.1-.6-.4-.9-.6s-.5-.7-.6-1.2c-.2-.5-.2-1.1-.2-1.8.1-.5.2-1.1.3-1.6zm14.4 2.6c.2-.1.3-.2.5-.2v2.1c0 .6 0 1.1-.1 1.7h5.1v-1.1c-.5.1-1 .1-1.5.1h-1.5v-3.7c.3-.1.6-.3.9-.4s.6-.3.9-.4l-.4-.7c-.2.1-.5.2-.7.4s-.5.2-.7.3v-2.1c0-.6 0-1.1.1-1.7h-2.2c0 .6.1 1.1.1 1.7v3c-.2.1-.4.2-.7.3-.2.1-.5.2-.8.3l.4.6c.2 0 .4-.1.6-.2zm12.2 3.5h.6c.1-.4.3-.9.4-1.3.1-.5.3-.9.5-1.4h3.2c.2.5.3.9.5 1.4s.3.9.4 1.3h2.4c-.3-.5-.5-1.1-.9-1.9s-.6-1.5-1-2.4c-.3-.8-.7-1.7-1-2.5s-.6-1.7-.9-2.4h-.8c-.2.5-.4 1-.6 1.6-.2.6-.5 1.2-.7 1.8-.2.6-.5 1.2-.7 1.8s-.5 1.1-.7 1.7c-.2.5-.4 1-.6 1.4s-.3.7-.4 1h.4c-.3-.1-.2-.1-.1-.1zm2.5-5.1c.2-.5.4-1 .7-1.6.2.5.4 1.1.6 1.6s.4 1 .6 1.6H142c.2-.5.4-1.1.6-1.6zM43.2 44.3h.6c.1-.4.3-.9.4-1.3.2-.5.3-.9.5-1.4h3.2c.2.5.3.9.5 1.4.2.5.3.9.4 1.3h2.4c-.3-.5-.5-1.2-.9-1.9-.3-.8-.6-1.5-1-2.4-.3-.8-.7-1.7-1-2.5-.3-.9-.6-1.7-.9-2.4h-.8c-.2.5-.4 1-.7 1.6s-.5 1.2-.7 1.8c-.2.6-.5 1.2-.7 1.8s-.5 1.2-.7 1.7c-.2.5-.4 1-.6 1.4s-.3.7-.4 1h.3c-.2-.1-.1-.1.1-.1zm2.5-5c.2-.5.4-1 .7-1.6.2.5.4 1.1.6 1.6.2.5.4 1 .6 1.6h-2.5c.1-.6.3-1.1.6-1.6zm12.1 3.4c0 .6 0 1.1-.1 1.7h2.2c0-.5-.1-1.1-.1-1.7v-2.5h.1l2.4 4.2h2.4c-.5-.7-1-1.5-1.5-2.2s-1-1.5-1.4-2.3c.7-.2 1.2-.5 1.5-.9s.5-.9.5-1.6c0-.4-.1-.7-.2-1-.2-.3-.4-.5-.6-.7-.1-.1-.2-.2-.4-.2-.1-.1-.3-.1-.5-.1s-.4-.1-.6-.1h-4c0 .6.1 1.2.1 1.7v3.8c.2.6.2 1.3.2 1.9zm2-6.8h.9c.3 0 .5.1.6.2.2.1.3.3.4.5.1.2.1.5.1.9 0 .6-.2 1.1-.5 1.4s-.8.5-1.3.5h-.3c.1-1 .1-2.3.1-3.5zm10.4.4c.2 0 .4 0 .6-.1h1.8v6.5c0 .6 0 1.1-.1 1.7h2.2c0-.5-.1-1.1-.1-1.7v-6.5h1.8c.3 0 .4 0 .6.1 0-.1 0-.2-.1-.3v-.6c0-.1 0-.2.1-.3h-6.9c0 .1 0 .2.1.3v.9zm14.1 1.2c.3.5.6 1 .8 1.6.3.5.6 1 .8 1.5v1.2c0 .4 0 .8-.1 1.3 0 .4-.1.8-.1 1.2h2.4c-.1-.5-.1-1-.1-1.4v-2.7c.2-.4.4-.9.7-1.4.3-.5.5-1 .8-1.5s.5-.9.7-1.3c.2-.4.4-.7.6-1h-1.2c-.2.3-.3.7-.5 1s-.3.7-.5 1.1c-.2.4-.3.7-.5 1s-.4.6-.5.9c-.1-.2-.2-.4-.4-.7-.2-.3-.3-.7-.5-1l-.6-1.2c-.2-.4-.4-.8-.5-1.1h-2.4c.1.2.3.5.5.9 0 .6.3 1.1.6 1.6zm14.9 6.2c-.3 0-.5 0-.7-.1l-.6-.3c-.2-.1-.3-.3-.4-.5s-.2-.4-.2-.5h-.2c-.1.3-.1.6-.2.8-.1.3-.1.5-.2.8.2.2.5.3.9.4.4.1.8.2 1.3.2s1-.1 1.4-.2.8-.3 1.1-.6c.3-.3.6-.6.7-1s.2-.8.2-1.2c0-.5-.1-.9-.3-1.2-.2-.3-.4-.6-.8-.8-.3-.2-.6-.4-1-.6-.3-.2-.7-.3-1-.5-.3-.2-.6-.4-.8-.6-.2-.2-.3-.5-.3-.8 0-.3.1-.6.4-.8s.6-.4 1-.4c.8 0 1.3.4 1.6 1.2h.2c.1-.3.2-.5.2-.7s.1-.4.2-.6c-.3-.2-.6-.4-.9-.5s-.8-.2-1.3-.2c-.4 0-.8.1-1.2.2-.4.1-.7.3-1 .5-.3.2-.5.5-.7.9-.2.4-.2.8-.2 1.2 0 .5.1.9.3 1.2.2.3.4.6.7.8.3.2.6.4 1 .6.3.2.7.3 1 .5.3.2.5.3.7.6.2.2.3.5.3.8 0 .4-.1.7-.4 1 .2.3-.2.4-.8.4zm9.4-7.4c.2 0 .4 0 .6-.1h1.8v6.5c0 .6 0 1.1-.1 1.7h2.2c0-.5-.1-1.1-.1-1.7v-6.5h1.8c.3 0 .4 0 .6.1 0-.1 0-.2-.1-.3s0-.2 0-.3v-.3c0-.1 0-.2.1-.3h-6.9c0 .1 0 .2.1.3v.9zm14.1 1.2c.3.5.6 1 .8 1.6.3.5.6 1 .8 1.5v1.2c0 .4 0 .8-.1 1.3 0 .4-.1.8-.1 1.2h2.4c-.1-.5-.1-1-.1-1.4v-2.7c.2-.4.4-.9.7-1.4.3-.5.5-1 .8-1.5.3-.5.5-.9.7-1.3.2-.4.4-.7.6-1H128c-.2.3-.3.7-.5 1s-.3.7-.5 1.1c-.2.4-.3.7-.5 1s-.4.6-.5.9c-.1-.2-.2-.4-.4-.7-.2-.3-.3-.7-.5-1l-.6-1.2c-.2-.4-.4-.8-.5-1.1h-2.4c.1.2.3.5.5.9.1.6.3 1.1.6 1.6zm13.7 5.8c.4.4.9.7 1.6.9.6.2 1.3.3 2.1.3 1.1 0 2-.2 2.7-.5 0-.2.1-.4.1-.6.1-.2.1-.4.2-.6l-.2-.1c-.1.2-.3.3-.5.4l-.6.3c-.2.1-.4.2-.7.2-.2 0-.4.1-.7.1-.4 0-.8-.1-1.1-.2-.4-.1-.7-.4-1-.7-.3-.3-.5-.7-.7-1.2-.2-.5-.3-1.1-.3-1.8s.1-1.3.3-1.8c.2-.5.4-.9.7-1.3.3-.3.6-.6 1-.7s.7-.2 1.1-.2c.5 0 .9.1 1.3.3s.7.5 1.1.9h.2c0-.2.1-.5.1-.7s.1-.5.2-.7c-.1-.1-.3-.2-.6-.2s-.4-.2-.7-.2c-.2-.1-.5-.1-.8-.1h-.7c-.7 0-1.4.1-2 .3s-1.2.5-1.7.9-.9.9-1.2 1.6-.4 1.4-.4 2.3c0 .6.1 1.2.3 1.8.2.4.5.9.9 1.3zm16.9 1h3.3v-1.1h-4.7c.8-1.3 1.5-2.7 2.3-4 .8-1.3 1.6-2.6 2.4-4V35h-7c0 .1 0 .2.1.3v.6c0 .1 0 .2-.1.3.7-.1 1.4-.1 2.1-.1h2.1l-1.2 2.1-1.2 2.1c-.4.7-.8 1.4-1.2 2s-.8 1.2-1.1 1.7v.2h1.5c.7.1 1.6.1 2.7.1zm11.2 0h.3v-6.5c2.1 2.2 4 4.3 5.9 6.4h1.1v-5.1c0-.6 0-1.2.1-1.8 0-.7.1-1.4.1-2.2-.2 0-.4.1-.6.1-.1 0-.4 0-.6-.1 0 .1 0 .3.1.5v5.9c-1-1.1-2-2.1-2.9-3.2-.9-1-1.9-2.1-2.9-3.2-.2 0-.4.1-.6.1s-.4 0-.6-.1v4.7c0 .7-.1 1.4-.1 2s-.1 1.2-.1 1.6c0 .4-.1.7-.1.8h.6c.1.1.2.1.3.1zm14.4 0h.6c.1-.4.3-.9.4-1.3.1-.5.3-.9.5-1.4h3.2c.2.5.3.9.5 1.4s.3.9.4 1.3h2.4c-.3-.5-.5-1.2-.9-1.9-.3-.8-.6-1.5-1-2.4-.3-.8-.7-1.7-1-2.5s-.6-1.7-.9-2.4h-.8c-.2.5-.4 1-.6 1.6-.2.6-.5 1.2-.7 1.8-.2.6-.5 1.2-.7 1.8s-.5 1.2-.7 1.7c-.2.5-.4 1-.6 1.4s-.3.7-.4 1h.4c.2 0-.2-.1-.1-.1zm2.5-5c.2-.5.4-1 .7-1.6.2.5.4 1.1.6 1.6s.4 1 .6 1.6h-2.4c.1-.6.3-1.1.5-1.6z"/></g></svg>