<svg xmlns="http://www.w3.org/2000/svg" width="25.625" height="18.38"><path id="Kształt_13" data-name="Kształt 13" d="M361.544 7164.27a5.764 5.764 0 00-1.018-2.6 3.6 3.6 0 00-2.564-1.1c-3.583-.27-8.956-.27-8.956-.27h-.012s-5.373 0-8.956.27a3.607 3.607 0 00-2.565 1.1 5.771 5.771 0 00-1.017 2.6 40.47 40.47 0 00-.256 4.23v1.99a40.218 40.218 0 00.256 4.23 5.771 5.771 0 001.017 2.6 4.3 4.3 0 002.823 1.12c2.048.2 8.7.26 8.7.26s5.379-.01 8.962-.27a3.625 3.625 0 002.564-1.11 5.764 5.764 0 001.018-2.6 40.218 40.218 0 00.256-4.23v-1.99a40.47 40.47 0 00-.252-4.23zm-15.187 8.62v-7.35l6.917 3.69z" transform="translate(-336.188 -7160.31)" fill="#fff" fill-rule="evenodd"/></svg>